<?xml version="1.0" encoding="utf-8"?>
<!-- Uploaded to: SVG Repo, www.svgrepo.com, Generator: SVG Repo Mixer Tools -->
<svg width="800px" height="800px" viewBox="0 0 1024 1024" class="icon"  version="1.1" xmlns="http://www.w3.org/2000/svg"><path d="M715.637 960h171.897C920.348 960 960 932.759 960 898.909V125.091C960 91.243 920.348 64 887.534 64H113.716C77.004 64 64 96.892 64 125.091v773.818C64 927.109 77.004 960 113.716 960h439.012V634.182H410.181c-11.257 0-20.363-9.106-20.363-20.363V491.637c0-11.257 9.106-20.365 20.363-20.365h142.546V328.728c0-99.354 88.056-183.272 192.261-183.272h113.193c11.257 0 20.365 9.106 20.365 20.363V288c0 11.258-9.108 20.365-20.365 20.365h-72.465c-34.444 0-70.079 19.052-70.079 50.908v112h131.17a20.27 20.27 0 0 1 16.507 8.472c3.856 5.291 4.891 12.133 2.823 18.337l-40.728 122.181a20.403 20.403 0 0 1-19.33 13.919h-90.442V960z" fill="#2577FF" /><path d="M807.708 451.723h-92.071v19.549h112.288c-0.161-3.938-1.326-7.809-3.711-11.078a20.263 20.263 0 0 0-16.506-8.471zM513.629 940.451H75.445C83.3 951.952 95.599 960 113.716 960h439.012V634.183H513.63v306.268zM839.283 145.456c-0.451-10.855-9.231-19.549-20.198-19.549H705.89c-104.205 0-192.261 83.919-192.261 183.272v142.544H371.083c-11.257 0-20.363 9.108-20.363 20.365v122.181c0 11.258 9.107 20.364 20.363 20.364h18.899c-0.012-0.286-0.164-0.527-0.164-0.815V491.637c0-11.257 9.106-20.365 20.363-20.365h142.546V328.728c0-99.353 88.056-183.272 192.261-183.272h94.295z" fill="" /><path d="M900.123 65.251c12.221 10.76 20.778 24.748 20.778 40.29V879.36c0 33.85-39.651 61.091-72.467 61.091H715.637V960h171.896C920.348 960 960 932.759 960 898.909V125.091c0-29.6-30.322-54.141-59.877-59.84z" fill="" /></svg>