<?xml version="1.0" encoding="utf-8"?><!-- Uploaded to: SVG Repo, www.svgrepo.com, Generator: SVG Repo
Mixer Tools -->
<svg
  fill="#d8d8d8"
  width="24px"
  height="24px"
  viewBox="0 0 24 24"
  xmlns="http://www.w3.org/2000/svg"
>
  <g id="svgrepo_bgcarrier" stroke-width="0" />
  <g
    id="svgrepo_tracercarrier"
    stroke-linecap="round"
    stroke-linejoin="round"
  />
  <g id="SVGRepo_iconCarrier">
    <path
      d="M4 11h6a1 1 0 0 0 1-1V4a1 1 0 0 0-1-1H4a1 1 0 0 0-1 1v6a1 1 0 0 0 1 1zm10 0h6a1 1 0 0 0 1-1V4a1 1 0 0 0-1-1h-6a1 1 0 0 0-1 1v6a1 1 0 0 0 1 1zM4 21h6a1 1 0 0 0 1-1v-6a1 1 0 0 0-1-1H4a1 1 0 0 0-1 1v6a1 1 0 0 0 1 1zm13 0c2.206 0 4-1.794 4-4s-1.794-4-4-4-4 1.794-4 4 1.794 4 4 4z" />
  </g>
</svg>
