<svg id="visual" viewBox="0 0 960 540" width="960" height="540" xmlns="http://www.w3.org/2000/svg" xmlns:xlink="http://www.w3.org/1999/xlink" version="1.1"><path d="M0 23L69 28L137 23L206 23L274 23L343 28L411 23L480 23L549 23L617 23L686 23L754 23L823 28L891 23L960 28L960 0L891 0L823 0L754 0L686 0L617 0L549 0L480 0L411 0L343 0L274 0L206 0L137 0L69 0L0 0Z" fill="#ffffff"></path><path d="M0 39L69 50L137 39L206 44L274 44L343 50L411 44L480 44L549 44L617 39L686 39L754 39L823 44L891 39L960 44L960 26L891 21L823 26L754 21L686 21L617 21L549 21L480 21L411 21L343 26L274 21L206 21L137 21L69 26L0 21Z" fill="#e5f7f1"></path><path d="M0 55L69 71L137 60L206 66L274 60L343 71L411 60L480 60L549 60L617 55L686 55L754 60L823 66L891 55L960 60L960 42L891 37L823 42L754 37L686 37L617 37L549 42L480 42L411 42L343 48L274 42L206 42L137 37L69 48L0 37Z" fill="#cbefe3"></path><path d="M0 87L69 104L137 87L206 93L274 93L343 104L411 87L480 87L549 93L617 82L686 87L754 104L823 104L891 87L960 93L960 58L891 53L823 64L754 58L686 53L617 53L549 58L480 58L411 58L343 69L274 58L206 64L137 58L69 69L0 53Z" fill="#b0e7d5"></path><path d="M0 206L69 206L137 206L206 222L274 201L343 228L411 217L480 212L549 185L617 190L686 195L754 212L823 185L891 206L960 228L960 91L891 85L823 102L754 102L686 85L617 80L549 91L480 85L411 85L343 102L274 91L206 91L137 85L69 102L0 85Z" fill="#94dec7"></path><path d="M0 260L69 260L137 255L206 266L274 244L343 271L411 260L480 266L549 233L617 249L686 244L754 249L823 239L891 255L960 282L960 226L891 204L823 183L754 210L686 193L617 188L549 183L480 210L411 215L343 226L274 199L206 220L137 204L69 204L0 204Z" fill="#88dbc1"></path><path d="M0 293L69 287L137 287L206 287L274 266L343 303L411 287L480 287L549 260L617 276L686 276L754 271L823 266L891 287L960 303L960 280L891 253L823 237L754 247L686 242L617 247L549 231L480 264L411 258L343 269L274 242L206 264L137 253L69 258L0 258Z" fill="#88dbc1"></path><path d="M0 341L69 347L137 347L206 352L274 347L343 379L411 347L480 352L549 336L617 336L686 330L754 336L823 336L891 347L960 357L960 301L891 285L823 264L754 269L686 274L617 274L549 258L480 285L411 285L343 301L274 264L206 285L137 285L69 285L0 291Z" fill="#94dec7"></path><path d="M0 368L69 374L137 379L206 384L274 379L343 406L411 379L480 390L549 368L617 368L686 368L754 368L823 368L891 374L960 384L960 355L891 345L823 334L754 334L686 328L617 334L549 334L480 350L411 345L343 377L274 345L206 350L137 345L69 345L0 339Z" fill="#b0e7d5"></path><path d="M0 417L69 422L137 411L206 433L274 411L343 438L411 411L480 433L549 411L617 406L686 406L754 417L823 406L891 422L960 422L960 382L891 372L823 366L754 366L686 366L617 366L549 366L480 388L411 377L343 404L274 377L206 382L137 377L69 372L0 366Z" fill="#cbefe3"></path><path d="M0 514L69 519L137 519L206 519L274 519L343 519L411 519L480 519L549 514L617 514L686 519L754 519L823 514L891 519L960 519L960 420L891 420L823 404L754 415L686 404L617 404L549 409L480 431L411 409L343 436L274 409L206 431L137 409L69 420L0 415Z" fill="#e5f7f1"></path><path d="M0 541L69 541L137 541L206 541L274 541L343 541L411 541L480 541L549 541L617 541L686 541L754 541L823 541L891 541L960 541L960 517L891 517L823 512L754 517L686 517L617 512L549 512L480 517L411 517L343 517L274 517L206 517L137 517L69 517L0 512Z" fill="#ffffff"></path></svg>