<svg id="visual" viewBox="0 0 960 540" width="960" height="540" xmlns="http://www.w3.org/2000/svg" xmlns:xlink="http://www.w3.org/1999/xlink" version="1.1"><path d="M0 190L32 190C64 190 128 190 192 190C256 190 320 190 384 181C448 172 512 154 576 154C640 154 704 172 768 186.3C832 200.7 896 211.3 928 216.7L960 222L960 0L928 0C896 0 832 0 768 0C704 0 640 0 576 0C512 0 448 0 384 0C320 0 256 0 192 0C128 0 64 0 32 0L0 0Z" fill="#497057"></path><path d="M0 249L32 245.5C64 242 128 235 192 237.8C256 240.7 320 253.3 384 256C448 258.7 512 251.3 576 249.5C640 247.7 704 251.3 768 260.3C832 269.3 896 283.7 928 290.8L960 298L960 220L928 214.7C896 209.3 832 198.7 768 184.3C704 170 640 152 576 152C512 152 448 170 384 179C320 188 256 188 192 188C128 188 64 188 32 188L0 188Z" fill="#74927e"></path><path d="M0 363L32 365.7C64 368.3 128 373.7 192 379C256 384.3 320 389.7 384 385.2C448 380.7 512 366.3 576 361C640 355.7 704 359.3 768 362C832 364.7 896 366.3 928 367.2L960 368L960 296L928 288.8C896 281.7 832 267.3 768 258.3C704 249.3 640 245.7 576 247.5C512 249.3 448 256.7 384 254C320 251.3 256 238.7 192 235.8C128 233 64 240 32 243.5L0 247Z" fill="#a1b5a7"></path><path d="M0 395L32 405C64 415 128 435 192 449.5C256 464 320 473 384 467.5C448 462 512 442 576 434.7C640 427.3 704 432.7 768 430.8C832 429 896 420 928 415.5L960 411L960 366L928 365.2C896 364.3 832 362.7 768 360C704 357.3 640 353.7 576 359C512 364.3 448 378.7 384 383.2C320 387.7 256 382.3 192 377C128 371.7 64 366.3 32 363.7L0 361Z" fill="#cfd9d2"></path><path d="M0 541L32 541C64 541 128 541 192 541C256 541 320 541 384 541C448 541 512 541 576 541C640 541 704 541 768 541C832 541 896 541 928 541L960 541L960 409L928 413.5C896 418 832 427 768 428.8C704 430.7 640 425.3 576 432.7C512 440 448 460 384 465.5C320 471 256 462 192 447.5C128 433 64 413 32 403L0 393Z" fill="#ffffff"></path></svg>